<svg xmlns="http://www.w3.org/2000/svg" viewBox="0 0 128 128" role="img" aria-label="Australian shepherd cartoon face">
  <defs>
    <linearGradient id="fur" x1="0" y1="0" x2="1" y2="1">
      <stop offset="0" stop-color="#f8f8f8" />
      <stop offset="1" stop-color="#dbdbdb" />
    </linearGradient>
    <linearGradient id="patch" x1="0" y1="0" x2="1" y2="1">
      <stop offset="0" stop-color="#8a6a54" />
      <stop offset="1" stop-color="#5d4739" />
    </linearGradient>
  </defs>
  <path d="M23 44c-7-10-7-23 0-29 8-8 22-5 32 5" fill="#2f2f2f"/>
  <path d="M105 44c7-10 7-23 0-29-8-8-22-5-32 5" fill="#2f2f2f"/>
  <ellipse cx="64" cy="67" rx="48" ry="43" fill="url(#fur)"/>
  <path d="M18 63c0-21 22-38 46-38 9 0 16 2 24 6-7-2-14 0-20 5-8 6-11 17-11 29v40C34 102 18 84 18 63z" fill="url(#patch)"/>
  <ellipse cx="49" cy="68" rx="8" ry="9" fill="#1d1d1d"/>
  <ellipse cx="83" cy="68" rx="8" ry="9" fill="#1d1d1d"/>
  <circle cx="52" cy="65" r="2" fill="#fff"/>
  <circle cx="86" cy="65" r="2" fill="#fff"/>
  <path d="M64 77l8 10-8 4-8-4z" fill="#3b312b"/>
  <path d="M46 94c6 7 30 7 36 0" fill="none" stroke="#3b312b" stroke-width="4" stroke-linecap="round"/>
  <ellipse cx="39" cy="84" rx="7" ry="4" fill="#e8a7a7" opacity=".55"/>
  <ellipse cx="89" cy="84" rx="7" ry="4" fill="#e8a7a7" opacity=".55"/>
</svg>
