<svg width="1200" height="1600" viewBox="0 0 1200 1600" fill="none" xmlns="http://www.w3.org/2000/svg">
  <defs>
    <filter id="paperNoise" x="-20%" y="-20%" width="140%" height="140%">
      <feTurbulence type="fractalNoise" baseFrequency="0.85" numOctaves="2" seed="14" />
      <feColorMatrix type="saturate" values="0" />
      <feComponentTransfer>
        <feFuncA type="table" tableValues="0 0.14" />
      </feComponentTransfer>
    </filter>
    <linearGradient id="paperGrad" x1="0" y1="0" x2="1200" y2="1600" gradientUnits="userSpaceOnUse">
      <stop stop-color="#FBF1DC" />
      <stop offset="1" stop-color="#E7D2AC" />
    </linearGradient>
    <radialGradient id="stain" cx="0" cy="0" r="1" gradientUnits="userSpaceOnUse" gradientTransform="translate(908 328) rotate(112) scale(450 290)">
      <stop stop-color="#B39365" stop-opacity="0.24" />
      <stop offset="1" stop-color="#B39365" stop-opacity="0" />
    </radialGradient>
  </defs>

  <path id="paper-shape" d="M82 74L150 60L248 72L356 48L470 74L610 58L734 80L846 62L972 84L1094 70L1136 156L1126 278L1142 402L1118 544L1140 692L1112 826L1134 960L1106 1090L1118 1228L1088 1364L1100 1518L1014 1544L900 1528L764 1548L640 1526L514 1542L392 1518L266 1538L152 1514L88 1456L74 1332L88 1200L62 1062L86 930L64 788L90 644L68 504L96 372L74 228L82 74Z" fill="url(#paperGrad)"/>
  <path d="M82 74L150 60L248 72L356 48L470 74L610 58L734 80L846 62L972 84L1094 70L1136 156L1126 278L1142 402L1118 544L1140 692L1112 826L1134 960L1106 1090L1118 1228L1088 1364L1100 1518L1014 1544L900 1528L764 1548L640 1526L514 1542L392 1518L266 1538L152 1514L88 1456L74 1332L88 1200L62 1062L86 930L64 788L90 644L68 504L96 372L74 228L82 74Z" fill="url(#stain)"/>
  <path d="M82 74L150 60L248 72L356 48L470 74L610 58L734 80L846 62L972 84L1094 70L1136 156L1126 278L1142 402L1118 544L1140 692L1112 826L1134 960L1106 1090L1118 1228L1088 1364L1100 1518L1014 1544L900 1528L764 1548L640 1526L514 1542L392 1518L266 1538L152 1514L88 1456L74 1332L88 1200L62 1062L86 930L64 788L90 644L68 504L96 372L74 228L82 74Z" fill="#000" filter="url(#paperNoise)"/>
  <path d="M82 74L150 60L248 72L356 48L470 74L610 58L734 80L846 62L972 84L1094 70L1136 156L1126 278L1142 402L1118 544L1140 692L1112 826L1134 960L1106 1090L1118 1228L1088 1364L1100 1518L1014 1544L900 1528L764 1548L640 1526L514 1542L392 1518L266 1538L152 1514L88 1456L74 1332L88 1200L62 1062L86 930L64 788L90 644L68 504L96 372L74 228L82 74Z" stroke="#95744D" stroke-opacity="0.55" stroke-width="3" />
</svg>
